<?xml version="1.0" encoding="iso-8859-1"?>
<!-- Generator: Adobe Illustrator 19.0.0, SVG Export Plug-In . SVG Version: 6.00 Build 0)  -->
<svg xmlns="http://www.w3.org/2000/svg" xmlns:xlink="http://www.w3.org/1999/xlink" version="1.1" id="Capa_1" x="0px" y="0px" viewBox="0 0 116.653 116.653" style="enable-background:new 0 0 116.653 116.653;" xml:space="preserve" width="512px" height="512px">
<g id="_x30_201-halloween-candy-basket">
	<g>
		<path style="fill-rule:evenodd;clip-rule:evenodd;" d="M112.271,12.258c-1.223-3.041-3.904-4.917-6.614-6.811    c-3.063-2.145-5.62-3.586-9.261-4.454c-6.465-1.545-13.198-1.525-19.159,1.776C72.323,5.49,69.186,9.934,67.037,15.08    c-2.442,5.846-3.618,12.466-1.807,18.63c1.552,5.284,5.004,9.479,8.942,13.197c-1.914,1.776-3.947,4.507-5.277,6.774    c-0.793,1.349-0.856,3.119-0.034,4.491c0.599,0.997,3.561,1.541,3.426,2.831c-0.091,0.86-0.733,1.925-0.971,2.793    c-0.351,1.284-0.694,2.571-1.017,3.863c-0.923,3.684-1.739,7.39-2.591,11.09c-1.695,7.363-3.888,14.578-5.852,21.867    c-0.917,3.409-2.023,6.729-3.121,10.078c-0.587,1.79-1.074,3.637-1.146,5.529c-0.007,0.171,2.121,0.465,2.358,0.426    c0.814-0.132,1.935-0.632,2.61-1.093c0.735-0.504,1.02-1.362,1.33-2.208c0.434-1.188,0.76-2.418,1.256-3.582    c0.737-1.729,1.172-2.999,1.584-4.884c0.343-1.572,0.8-3.117,1.293-4.648c2.112-6.554,3.116-13.32,4.88-19.939    c0.852-3.202,1.595-6.433,2.489-9.624c0.461-1.643,0.961-3.28,1.534-4.886c0.283-0.795,0.495-1.378,0.495-2.14    c0.001-0.579,0.047-1.138,0.08-1.718c1.387-0.127,2.699,0.404,4.08,0.422c1.508,0.018,2.135-0.597,2.848-1.869    c1.682-2.999,1.096-6.86,0.783-10.079c0.189-0.008,0.377-0.014,0.563-0.018c1.692-0.039,3.308,0.112,5.042-0.141    c1.677-0.245,3.461-0.589,4.953-1.431c1.322-0.746,2.636-1.464,3.932-2.257c0.805-0.493,2.86-1.346,3.154-2.298    c0.125-0.403,2.031-1.594,2.491-1.992c0.809-0.701,2.473-1.743,2.726-2.748c0.279-1.111,1.438-2.605,1.954-3.716    c0.555-1.192,1.077-2.401,1.543-3.631C114.025,25.708,114.896,18.784,112.271,12.258z M80.806,56.525    c-0.768,0.088-1.531,0.037-2.279-0.153c-0.656-0.167-1.294-0.436-1.956-0.573c-0.532-0.112-1.041,0.118-1.505,0.037    c-0.294-0.051-0.484-0.147-0.594-0.275c-0.56-0.644,0.956-2.083,1.533-2.373c1.445-0.726,3.235-0.559,4.801-0.642V56.525z     M106.313,26.881c-1.491,6.517-4.945,12.288-10.771,15.695c-3.074,1.796-6.169,3.184-9.763,3.009    c-2.458-0.122-4.644-0.116-6.883-1.392c-0.707-0.402-1.52-0.897-2.153-1.409c-0.015-0.01-0.031-0.024-0.046-0.035    c-0.931-0.777-1.46-1.998-2.15-2.966c-0.195-0.273-1.863-3.502-1.702-3.488c2.235,0.192,4.488,0.616,6.735,0.292    c4.232-0.612,0.66-4.081-1.816-4.625c-1.211-0.265-6.229,0.11-6.487-0.84c-0.332-1.223,0.028-2.538-0.09-3.781    c1.361-0.134,2.729-0.08,4.091,0.018c2.352,0.169,4.934,0.587,7.185-0.349c-0.803-4.356-7.492-3.3-10.613-3.317    c0.357-1.498,0.317-3.979,1.99-3.979h4.976c1.772,0,5.389,0.699,6.632-0.997c-1.213-4.256-6.751-4.152-10.281-3.979    c0.033-1.188,0.955-1.735,1.446-2.699c0.556-1.089,2.302-0.618,3.529-0.618c1.906,0.208,3.367,1.8,5.288,1.951    c2.401,0.186,2.504-2.183,1.103-3.588c-0.186-0.186-2.758-2.073-2.731-2.157c0.106-0.061,0.213-0.122,0.32-0.188    c6.079-1.017,12.78-0.469,17.989,3.092c2.142,1.462,4.214,3.262,4.439,5.928C106.832,19.799,107.062,23.609,106.313,26.881z     M47.918,94.638c-2.278-2.022-5.014-3.366-7.413-5.217c-1.135-0.876-3.654-2.436-2.59-3.779c1.259-1.592,2.818-2.94,3.986-4.601    c1.077-1.529,1.711-3.3,2.273-5.07c1.16-3.653,1.442-6.919,1.125-10.692c-0.565-6.715-4.31-12.547-8.932-17.578    c-2.013-2.193-4.766-3.747-7.45-4.733c-1.678-0.616-1.788-0.536-1.264-2.181c0.519-1.631,1.504-2.994,2.27-4.503    c0.791-1.557,1.208-3.268,1.79-4.909c0.678-1.914,1.516-3.828,2.073-5.745c0.448-1.541,0.841-3.203,0.651-4.815    c-0.107-0.911-0.65-1.965-1.389-2.795c-0.578-0.648-1.276-1.16-1.977-1.356c-1.632-0.455-3.414-0.455-5.044,0.01    c-1.135,0.322-2.549,0.518-3.548,1.16c-1.11,0.715-1.542,1.015-2.347,2.01c-1.054,1.301-1.94,3.822-3.685,4.399    c-2.087,0.691-4.161-1.327-5.725-2.369c-4.442-2.962-7.981,1.031-7.939,5.449c0.047,4.939,1.866,9.163,5.89,11.911    c1.153,0.787,2.345,1.535,3.4,2.452c0.438,0.381,0.828,0.819,1.307,1.15c0.457,0.316,1.079,0.465,1.427,0.923    c0.554,0.728,0.201,1.537,0.062,2.401c-0.264,1.651-0.367,3.294-0.548,4.95c-0.164,1.502-0.728,3.027-1.137,4.497    c-0.872,3.131-1.756,6.283-2.037,9.532c-0.52,6.042,1.294,11.607,5.305,16.192c2.17,2.481,5.411,3.535,8.254,5.123    c0.911,0.507,1.812,1.034,2.701,1.578c-0.227,0.475-0.44,0.956-0.64,1.445c-0.425,1.048-0.748,2.134-0.914,3.256    c-0.399,2.697-2,5.043-2.132,7.801c-0.125,2.628-0.885,6.169,0.675,8.523c2.062,3.111,5.034-0.893,7.651,0.053    c2.836,1.026,3.736,3.447,7.015,2.183c1.589-0.609,2.855-1.945,4.304-2.825c1.66-1.009,3.401-1.892,4.938-3.09    c1.562-1.217,2.521-2.195,3.071-4.159C52.088,98.688,49.62,96.15,47.918,94.638z M14.224,37.098    c-1.442-0.907-4.954-2.742-5.1-4.324c-0.181-1.947-0.801-3.784-0.619-5.765c3.343,0.198,6.101,3.937,9.688,1.965    c1.795-0.989,3.066-2.609,4.293-4.203c0.563-0.732,1.113-1.674,1.775-2.306c0.261-0.249,0.57-0.426,0.907-0.556    c1.003-0.389,2.255-0.365,3.237-0.573c1.218-0.257,2.083-0.475,1.841,0.997c-0.35,2.12-0.84,4.22-1.507,6.264    c-0.808,2.473-1.888,4.862-3.27,7.068c-0.581,0.927-1.197,2.093-1.897,2.911c-0.638,0.748-1.438,0.605-2.353,0.777    c-0.993,0.185-1.926,0.667-2.818,1.115c-0.854,0.428-1.583-1.248-2.093-1.859C15.668,37.842,15.065,37.626,14.224,37.098z     M24.256,47.68c0.85,0.518,2.506,0.956,1.366,2.083c-0.851,0.842-1.958,1.346-2.884,2.092c-1.523,1.227-3.83,3.553-5.942,3.675    c0.888-2.836,1.193-5.916,2.577-8.578c1.02-1.963,3.437-0.446,4.72,0.62C23.64,47.195,24.12,47.566,24.256,47.68z M16.464,68.465    c-0.844-1.466-0.26-3.631-0.287-5.227c-0.023-1.376,3.675-2.595,4.953-3.372c2.835-1.725,6.026-3.374,8.635-5.41    c0.444-0.347,0.804-1.076,1.382-1.168c0.006-0.002,0.012-0.004,0.018-0.004c0.663-0.09,3.717,3.145,3.871,2.911    c-0.879,1.347-2.444,1.959-3.778,2.744c-1.52,0.893-2.929,1.975-4.546,2.695C23.054,63.26,19.25,65.544,16.464,68.465z     M21.662,76.342c-0.536,0.41-1.392,1.721-1.995,0.66c-0.413-0.726-0.885-1.502-1.455-2.104c-0.858-0.909,1.055-1.916,1.848-2.438    c2.199-1.445,3.948-3.425,6.138-4.799c3.307-2.077,7.172-3.724,10.829-5.078c0.851-0.312,1.441-0.33,1.844-0.131    c0.752,0.373,0.86,1.494,0.815,2.832c-0.031,0.96-0.18,1.345-0.954,1.839c-0.947,0.607-1.668,1.303-2.548,2    c-2.023,1.606-4.856,2.132-7.205,3.117C26.396,73.323,23.894,74.64,21.662,76.342z M25.087,79.41    c1.157-1.427,3.792-2.165,5.429-2.789c0.554-0.212,6.914-2.055,6.913-1.843c0,0.206-0.044,0.418-0.118,0.634    c-0.349,1.013-1.378,2.1-1.892,2.846c-0.971,1.407-1.961,2.803-3.035,4.136C29.914,81.487,27.622,80.148,25.087,79.41z     M44.814,102.372c-2.286,0.997-4.059,1.572-6,3.257c-1.357,1.176-1.094,1.376-2.467,0.402c-0.572-0.404-1.209-0.707-1.875-0.921    c-1.845-0.591-3.855-0.51-5.737-0.163c0.208-0.039,0.166-2.102,0.172-2.295c0.031-0.932,0.117-1.755,0.256-2.626    c0.046-0.287,0.098-0.579,0.156-0.883c0.184-0.977,0.241-1.615,0.665-2.511c0.537-1.136,0.958-2.414,1.295-3.623    c0.431-1.541,0.352-4.546,2.225-2.986c1.816,1.514,3.68,2.968,5.572,4.385c1,0.748,2.121,1.321,3.124,2.067    C43.323,97.31,47.329,101.273,44.814,102.372z M24.256,47.68c-0.059-0.036-0.114-0.072-0.163-0.109    C24.315,47.737,24.319,47.734,24.256,47.68z" fill="#59667d"/>
	</g>
</g>
<g>
</g>
<g>
</g>
<g>
</g>
<g>
</g>
<g>
</g>
<g>
</g>
<g>
</g>
<g>
</g>
<g>
</g>
<g>
</g>
<g>
</g>
<g>
</g>
<g>
</g>
<g>
</g>
<g>
</g>
</svg>
