<?xml version="1.0" encoding="iso-8859-1"?>
<!-- Generator: Adobe Illustrator 19.0.0, SVG Export Plug-In . SVG Version: 6.00 Build 0)  -->
<svg xmlns="http://www.w3.org/2000/svg" xmlns:xlink="http://www.w3.org/1999/xlink" version="1.1" id="Capa_1" x="0px" y="0px" viewBox="0 0 115.902 115.902" style="enable-background:new 0 0 115.902 115.902;" xml:space="preserve" width="512px" height="512px">
<g id="_x30_102-tombstone-rip-halloween">
	<g>
		<path style="fill-rule:evenodd;clip-rule:evenodd;" d="M113.134,99.737c-2.836,0.569-5.043,2.253-7.759,3.225    c0.633-2.192,1.868-4.173,2.297-6.43c0.195-1.027,0.579-2.556-0.751-2.738c-0.782-0.106-1.565,0.096-2.278,0.402    c-1.198,0.514-2.302,1.4-3.399,2.094c-0.961,0.605-2.503,1.926-3.794,2.198c-0.2,0.043-0.394,0.059-0.58,0.043    c-0.175-0.981,0.771-1.765,0.92-2.673c0.175-1.056,0.762-1.743,1.116-2.75c0.69-1.963,1.295-3.747,1.725-5.789    c0.88-4.175,1.538-8.395,2.424-12.57c0.29-1.364,0.604-2.721,0.96-4.069c1.246-4.731,2.558-9.448,3.447-14.264    c0.897-4.85,0.897-9.565,0.897-14.478c-0.82-3.79-1.326-8.138-1.326-12.007c0-2.069,0.196-4.407-0.492-6.395    c-0.602-1.743-1.918-3.115-3.099-4.483c-1.168-1.356-2.145-2.846-3.319-4.214c-1.48-1.723-3.129-3.307-5.11-4.401    c-2.038-1.125-4.214-2.01-6.486-2.53c-2.092-0.479-4.233-0.738-6.375-0.856c-3.876-0.212-7.761,0.016-11.634,0.214    c-3.804,0.194-7.688,0.075-11.458,0.661c-2.547,0.395-5.059,0.982-7.605,1.388c-4.226,0.677-8.138,1.46-11.962,3.465    c-6.268,3.286-9.664,10.038-11.769,16.457c-0.324,0.989-0.625,1.998-0.884,3.011c-0.384,1.494-0.802,2.984-1.135,4.493    c-0.259,1.174-0.594,2.299-0.601,3.51c-0.009,1.299-0.058,2.593-0.163,3.888c-0.217,2.66-0.619,5.3-1.055,7.932    c-0.705,4.254-1.412,8.513-1.893,12.798c-0.233,2.079-0.413,4.165-0.529,6.252c-0.536,1.959-1.023,3.932-1.479,5.912    c-1.014,4.399-1.879,8.831-2.756,13.261c-0.347,1.753-0.006,4.128-0.652,5.649c-0.279,0.658,0.398,2.35-0.42,2.707    c-0.896-1.262-1.118-9.759-3.809-8.454c-2.531,1.231-1.001,5.323-2.824,7.127c-0.584-3.015-1.807-5.718-2.637-8.639    c-0.29-1.017-0.859-1.882-1.997-1.984c-1.277-0.114-1.484,1.199-1.704,2.202c-0.545,2.485-1.433,5.115-1.651,7.632    c-0.257,2.954-2.21,5.728-1.298,8.747c2.808,0.386,3.181-4.307,3.593-6.118c0.257-1.125,0.81-2.228,0.83-3.378    c0.022-1.174,0.277-2.412,0.884-3.437c0.295,2.76,1.352,5.622,2.059,8.272c0.433,1.625,0.055,4.878,2.253,5.325    c2.084-1.452,1.733-5.341,2.984-7.628c-0.066,0.12,0.387,1.252,0.429,1.46c0.087,0.43,0.137,0.817,0.283,1.217    c0.316,0.87,0.456,1.716,0.67,2.616c0.181,0.76,0.402,1.639,0.787,2.324c1,1.786,3.513,0.075,4.331-1.013    c1.571-2.096,3.077-4.258,4.366-6.55c0.305-0.54,2.157-3.498,2.858-3.571c0.341-0.033-0.136,7.477,0.016,8.303    c0.222,1.186,1.12,2.444,2.468,2.405c0.9-0.026,1.631-0.514,2.231-1.152c0.596-0.632,1.294-1.223,1.835-1.892    c1.43-1.771,2.568-3.759,4.176-5.388c0.881-0.891,1.604-1.8,2.221-2.888c0.179-0.314,0.567-0.673,0.537-1.048    c-0.039-0.463-0.596-0.785-0.996-0.871c-0.591-0.128-1.188,0.212-1.706,0.5c-1.138,0.63-2.097,1.555-2.952,2.526    c-1.738,1.975-3.023,4.275-4.639,6.34c-0.202-2.874-0.212-6.633,0.57-9.4c0.677-2.389-0.696-4.167-3.078-2.658    c-0.88,0.557-5.61,6.103-5.655,6.075c-0.228-0.143,1.279-5.667,1.388-6.346c0.199-1.231,0.38-2.467,0.618-3.694    c0.273-1.398,1.523-1.044,2.779-1.409c1.754-0.507,3.596-0.671,5.357-1.168c0.924-0.261,1.868-0.577,2.677-1.107    c0.3-0.196,0.739-0.477,0.903-0.809c0.993-2.002-3.965-1.331-4.779-1.199c-2.307,0.367-4.513,1.17-6.751,1.816    c0.007-1.407,0.246-2.787,0.595-4.145c0.4-1.561,0.591-1.58,2.16-1.992c1.142-0.3,6.045-1.325,4.874-3.484    c-1.764-1.555-4.086,0.497-5.97,0.665c0.554-1.704,0.151-3.69,0.994-5.306c1.875-0.34,3.644-1.034,5.428-1.682    c1.948-0.708,6.071-0.926,6.18-3.625c-0.62-1.718-3.351-0.97-4.532-0.444c-1.871,0.834-4.345,1.8-6.412,2.102    c-0.166-1.319,0.176-2.546,0.297-3.847c0.119-1.258,1.206-1.415,2.34-1.873c1.689-0.685,4.574-1.272,4.66-3.565    c-1.831-1.684-4.391,0.173-6.302,0.663c-0.016-3.814,0.784-7.52,1.326-11.275c0.021-0.145,3.375-0.718,3.732-0.854    c0.761-0.292,2.562-1.376,2.028-2.406c-0.307-0.589-1.44-0.777-2.038-0.793c-0.896-0.024-1.783,0.328-2.621,0.597    c-1.367,0.442,0.033-4.309,0.288-5.104c0.56-1.739,3.872-0.455,4.249-3.05c0.1-0.691-1.233-0.854-1.627-0.764    c-0.535,0.122-1.281,0.909-1.844,0.697c-0.725-0.271-0.027-0.866,0.313-1.131c0.614-0.477,1.208-0.642,1.921-0.883    c0.937-0.314,1.89-0.64,2.713-1.138c0.78-0.471,1.661-0.552,2.506-0.858c1.548-0.559,4.059-0.536,4.308-2.556    c-1.761-3.384-7.717,1.611-9.987,1.503c-0.74-0.037,0.346-2.232,0.485-2.581c0.532-1.327,1.505-2.273,2.538-3.223    c1.209-1.109,2.383-2.263,3.679-3.272c4.423-3.443,9.896-3.941,15.253-4.738c2.743-0.41,5.499-0.728,8.262-0.954    c1.298,0.579,1.378,2.45,2.946,2.656c2.38,0.31-0.612-2.986,2.103-2.986h8.549c1.85,0.214,3.652,0.987,5.531,0.94    c1.585-0.041,3.26-0.067,4.835,0.127c1.039,0.128,2.103,0.544,3.115,0.805c2.421,0.626,4.427,2.597,6.245,4.21    c1.678,1.486,2.795,3.201,3.631,5.274c0.857,2.13,1.36,4.389,1.653,6.66c0.288,2.238-0.399,4.36-0.136,6.527    c-1.505-0.585-2.839-2.579-4.644-1.659c-0.74,2.275,2.376,3.256,3.864,4.053c1.061,0.569-0.899,7.917-1.136,9.361    c-1.146,6.976-2.22,13.998-4.121,20.818c-1.768,6.338-2.212,12.969-4.117,19.291c-0.429,1.427-0.865,2.85-1.235,4.293    c-0.375,1.466-0.086,3.035-0.203,4.55c-0.21,2.721-0.888,5.384-1.006,8.116c-0.042,0.952-0.444,1.8,0.691,1.99    c0.59,0.098,1.193,0.069,1.763-0.118c0.879-0.289,1.592-0.911,2.234-1.553c1.433-1.431,2.929-2.819,4.514-4.051    c0.961-0.746,1.943-1.484,2.864-2.277c0.335-0.287,1.724-1.462,2.184-1.409c0.603,0.071-1.873,5.512-1.896,6.368    c-0.083,3.056,3.578,1.248,5.164,0.658c0.65-0.241,1.242-0.611,1.886-0.866c0.502-0.198,0.983-0.163,1.493-0.294    c1.382-0.355,2.621-1.217,3.973-1.602C117.256,101.464,115.652,99.234,113.134,99.737z M87.86,21.59    c0.304-0.285,0.998-0.817,1.292-1.349c0.2-0.361,0.215-0.724-0.197-1.009c-0.746-0.52-2.122-0.118-2.894,0.275    c-0.961,0.489-2.121,1.684-1.912,2.862C85.429,22.925,86.881,22.513,87.86,21.59z M77.807,19.763    c-1.407,0.183-2.741,1.015-3.978,1.655c-0.815,0.422-4.6,2.222-2.016,3.082c1.572,0.522,3.48-0.903,4.918-1.423    c0.965-0.351,2.331-0.801,2.858-1.761c0.218-0.399,0.212-0.713,0.071-0.954C79.358,19.849,78.441,19.68,77.807,19.763z     M43.025,57.857c2.692,0.304,1.23-6.88,4.489-3.706c0.886,0.862,1.876,2.389,2.422,3.427c0.713,1.354,1.991,3.429,3.702,3.264    c0.623-0.059,0.647-1.443,0.576-1.828c-0.158-0.856-0.643-1.647-1.119-2.359c-0.518-0.775-1.103-1.498-1.678-2.228    c-0.243-0.31-0.464-0.648-0.72-0.946c-0.219-0.255-0.569-0.418-0.754-0.679c0.113-0.035,0.233-0.057,0.356-0.075    c0.282-0.043,0.579-0.057,0.852-0.135c1.758-0.5,3.67-1.935,4.504-3.561c0.967-1.886,0.755-4.479-1.075-5.549    c-2.919-1.706-6.447-1.716-9.699-1.421c-0.566,0.053-1.218,0.084-1.765,0.239c-0.582,0.165-0.784,0.497-0.888,1.048    c-0.107,0.565-0.038,1.117-0.032,1.698c0.01,0.864,0.246,1.812,0.104,2.64c-0.18,1.058-0.256,2.157-0.161,3.225    C42.302,52.741,40.499,57.048,43.025,57.857z M44.484,45.704c0.055-0.071,0.142-0.137,0.271-0.192    c1.371-0.593,10.287-0.899,8.289,2.187c-0.135,0.21-0.301,0.399-0.474,0.577c-1.529,1.592-3.464,1.992-5.533,2.179    c-0.674,0.063-1.347,0.092-2.023,0.106c-0.006-0.593-0.043-1.184-0.11-1.771c-0.08-0.695-0.194-1.39-0.331-2.077    C44.494,46.313,44.286,45.961,44.484,45.704z M65.509,54.252c-0.045,0.789-0.147,1.604-0.343,2.371    c-0.158,0.62-0.1,1.339-0.317,1.945c-0.965-0.163-2.424-0.353-3.251,0.285c-0.217,3.926,8.459,3.639,7.623,0.856    c-0.19-0.628-1.128-0.424-1.317-1.05c-0.331-1.103,0.32-3.05,0.468-4.183c0.396-3.037,0.578-5.926,0.304-8.96    c0.88-0.081,2.168,0.092,2.42-0.874c0.017-0.067,0.03-0.141,0.037-0.216c0.097-1.086-1.073-1.309-1.836-1.7    c-1.216-0.624-2.48-0.789-3.876-0.656c-0.896,0.086-1.971,0.648-1.238,1.549c0.273,0.334,0.603,0.754,0.923,1.046    c0.096,0.084,1.248,0.622,1.237,0.487c0.122,1.58,0.025,2.946-0.23,4.528C65.867,51.198,65.595,52.714,65.509,54.252z     M80.202,48.499c-0.161,2.562-0.417,5.127-0.421,7.697c-0.003,1.28-1.352,6.057,1.052,5.973c2.329-0.342,2.072-4.373,2.011-6.293    c-0.004-0.116-0.007-0.228-0.008-0.328c0.911-0.147,1.766,0.263,2.656,0.212c0.621-0.037,1.293-0.32,1.886-0.526    c2.118-0.734,4.463-2.208,4.712-4.632c0.206-2.01-0.972-4.205-2.347-5.616c-1.884-1.939-4.535-2.471-7.135-1.847    C79.855,43.8,80.342,46.254,80.202,48.499z M83.817,45.586c2.116,0.518,4.633,1.188,4.986,3.716    c0.39,2.795-3.496,3.445-5.651,3.413c-0.11-0.002-0.217-0.006-0.317-0.01C82.885,52.152,83.953,45.618,83.817,45.586z     M57.84,58.188c-0.471-1.951-3.3-0.885-2.597,1.009c0.568,1.531,2.914,0.418,2.602-0.987    C57.844,58.204,57.843,58.196,57.84,58.188z M70.133,59.91c-0.018,1.331,1.838,1.641,2.484,0.577    c0.215-0.353,0.254-0.677,0.179-0.95C72.479,58.394,70.16,58.088,70.133,59.91z M88.13,61.505c-0.197-1.37-2.81-1.323-2.654,0.332    C85.672,63.207,88.286,63.16,88.13,61.505z M58.112,68.301c-0.464,0.399-1.053,0.952-1.698,0.997    c-0.033,0.002-0.066,0.002-0.098-0.002c-0.612-0.073-0.885-1.264-1.185-1.769c-0.419-0.709-0.973-1.274-1.826-1.378    c-1.381,0.336-2.669,1.388-3.045,2.789c-0.128,0.477-0.567,1.034-0.025,1.372c0.344,0.216,1.003,0.216,1.327-0.039    c0.556-0.436,0.717-1.162,1.412-1.47c-0.197,0.088,1.769,2.852,2.067,3.078c0.579,0.442,1.318,0.671,2.044,0.54    c0.788-0.137,1.222-0.662,1.785-1.162c1.232-1.093,2.613-1.39,3.783-0.029c1.566,1.82,2.839,3.339,5.316,1.788    c1.189-0.744,2.154-1.017,3.57-0.897c0.762,0.067,1.926,0.391,2.573-0.175c0.708-0.624,0.328-1.745-0.276-2.285    c-1.296-1.166-3.605-0.703-5.095-0.249c-0.466,0.143-0.926,0.31-1.364,0.528c-1.5,0.746-1.609,0.306-2.67-0.795    c-1.01-1.05-1.744-1.667-3.22-1.667C60.045,67.475,59.228,67.341,58.112,68.301z M54.051,77.061    c-0.443-0.13-0.837-0.094-1.295-0.092c-0.699,0-1.421-0.043-2.096-0.239c-0.726-0.208-1.489-0.141-2.243-0.275    c-1.053-0.194-2.053-0.12-3.109-0.106c-0.313,0.004-0.705-0.012-0.984,0.184c-0.626,0.438,0.128,1.027,0.532,1.327    c1.109,0.824,2.855,1.099,4.168,1.378c1.729,0.367,3.713,0.742,5.471,0.355c0.451-0.1,1.062-0.271,1.238-0.736    c0.099-0.261,0.102-0.497,0.035-0.707C55.526,77.383,54.722,77.256,54.051,77.061z M92.681,78.239    c0.165-0.294,0.187-0.522,0.112-0.697c-0.157-0.367-0.738-0.487-1.285-0.436c-0.993,0.096-1.828,0.728-2.782,0.97    c-0.342,0.086-0.722-0.063-0.968,0.247c-0.259,0.326-0.068,0.775,0.261,0.997c0.398,0.267,0.886,0.167,1.329,0.126    c0.441-0.043,0.798,0.063,1.217,0.049C91.301,79.466,92.322,78.879,92.681,78.239z M69.12,80.649    c1.12-0.175,2.387-0.249,3.503,0.051c0.772,0.208,1.492,0.507,2.295,0.577c0.632,0.053,1.289,0.167,1.603-0.536    c-1.68-1.344-4.091-1.547-6.149-1.753c-1.671-0.165-3.306-0.565-4.972-0.771c-0.465-0.059-1.232-0.212-1.664,0.09    c-0.025,0.016-0.049,0.035-0.071,0.055c-0.36,0.326-0.324,0.913-0.03,1.268c0.419,0.503,1.17,0.701,1.781,0.834    C66.602,80.718,67.919,80.838,69.12,80.649z M62.152,97.715c-0.637,0.136-2.04,1.627-2.641,1.494    c-0.915-0.202,5.019-8.062,0.021-6.003c-2.865,1.18-6.124,3.896-7.886,6.44c-0.249-2.422,0.118-4.862,0.085-7.286    c-0.014-1.083-0.095-3.466-1.213-4.085c-0.345-0.19-0.786-0.212-1.355,0.02c-1.069,0.436-1.756,1.492-2.503,2.318    c-1.194,1.317-2.296,2.73-2.973,4.389c-1.132,1.413-4.974,6.609-2.985,8.291c2.585-0.141,2.812-2.793,4.312-4.31    c0.624-1.138,2.152-4.921,3.648-4.976c-0.742,1.772-0.307,3.871-0.113,5.708c0.186,1.749,0.734,2.43,2.6,2.815    c1.556,0.322,2.621-1.572,3.542-2.603c0.231-0.263,1.867-1.786,1.93-1.276c-0.896,1.292-0.954,3.618,0.272,4.638    c1.181,0.978,2.468-1.129,3.708-1.323c-0.146,0.024-0.445,1.684-0.479,1.894c-0.078,0.491-0.134,1.062,0.187,1.484    c0.487,0.642,1.378,0.636,2.014,0.224c0.807-0.52,0.696-1.358,0.933-2.173c0.256-0.881,0.462-1.776,0.715-2.658    C64.451,99.067,64.357,97.24,62.152,97.715z M71.725,93.185c-0.617-0.917-1.398-2.083-2.391-2.638    c-0.488-0.273-0.86-0.261-1.107-0.075c-0.327,0.249-0.436,0.805-0.308,1.419c0.184,0.883,0.562,1.716,0.973,2.516    c0.823,1.598,1.907,3.072,2.606,4.733c0.694,1.653,1.454,3.594,1.464,5.41c0.007,1.225-0.922,3.435,0.243,4.383    c4.517,0.014,2.096-7.008,1.552-9.294C74.218,97.371,73.018,95.11,71.725,93.185z M80.169,102.63    c0.128-0.141-0.422-2.049-0.468-2.31c-0.164-0.915-0.332-1.835-0.614-2.721c-0.247-0.783-0.578-1.604-1.166-2.193    c-0.36-0.365-1.025-0.481-1.529-0.253c-0.231,0.104-0.43,0.279-0.548,0.54c-0.237,0.516,0.129,1.278,0.288,1.755    c0.363,1.08,0.589,2.206,0.786,3.327c0.357,2.018,0.429,3.914,0.592,5.936c0.159,1.979,1.627,3.009,3.256,1.462    c0.941-0.895,1.246-2.232,2.057-3.221c0.091,1.327,0.235,3.086,1.991,2.984c1.822-0.383,0.645-7.437,0.184-8.807    C83.413,94.435,80.97,101.743,80.169,102.63z" fill="#59667d"/>
	</g>
</g>
<g>
</g>
<g>
</g>
<g>
</g>
<g>
</g>
<g>
</g>
<g>
</g>
<g>
</g>
<g>
</g>
<g>
</g>
<g>
</g>
<g>
</g>
<g>
</g>
<g>
</g>
<g>
</g>
<g>
</g>
</svg>
