<?xml version="1.0" encoding="iso-8859-1"?>
<!-- Generator: Adobe Illustrator 19.0.0, SVG Export Plug-In . SVG Version: 6.00 Build 0)  -->
<svg xmlns="http://www.w3.org/2000/svg" xmlns:xlink="http://www.w3.org/1999/xlink" version="1.1" id="Capa_1" x="0px" y="0px" viewBox="0 0 120.758 120.758" style="enable-background:new 0 0 120.758 120.758;" xml:space="preserve" width="512px" height="512px">
<g id="_x30_302-bats-halloween">
	<g>
		<path style="fill-rule:evenodd;clip-rule:evenodd;" d="M119.393,38.824c-2.438-6.436-5.583-12.712-9.184-18.579    c-2.582-4.208-5.974-8.244-9.411-11.772c-2.118-2.175-3.869-3.735-6.503-5.243c-2.062-1.18-4.091-1.804-6.408-2.216    c-2.424,0.565-1.556,1.57-2.223,3.58c-0.851,2.569-1.175,5.498-2.42,8.03c-2.276,4.629-6.365,8.191-10.705,10.816    c-2.407,1.455-4.945,2.685-7.535,3.775c-0.963-2.173-2.671-4.026-3.852-6.099c-1.348-2.361-3.21-4.593-4.761-6.86    c-0.29-0.422-2.633-3.4-3.086-2.277c-0.564,1.398,0.123,3.553,0.104,5.035c-0.047,3.584-2.646,3.029-5.298,4.11    c-2.27,0.926-4.241,2.126-5.411-0.789c-0.388-0.964-1.252-5.323-2.92-3.655c-1.058,1.058-0.517,3.543-0.598,4.882    c-0.156,2.536,0.225,5.119,0.676,7.608c0.217,1.192,0.359,2.416,0.267,3.629c-0.141,1.871-0.53,1.771-2.283,1.682    c-2.525-0.132-5.046-0.414-7.541-0.818c-3.861-0.628-7.824-1.441-11.295-3.319c-1.729-0.936-3.292-2.147-4.5-3.704    c-0.754-0.97-1.554-3.135-3.012-3.18c-0.676-0.021-2.122,1.394-2.781,1.981c-1.002,0.891-1.742,2.261-2.494,3.351    c-2.662,3.869-4.523,8.501-5.281,13.136C0.11,46.982,0,51.958,0,57.064c0.512,4.275,0.859,8.491,1.699,12.727    c0.184,0.925,1.004,5.814,2.122,6.169c1.106,0.351,1.058-2.34,1.29-3.007c0.533-1.525,1.023-2.432,1.935-3.786    c1.879-2.791,4.879-5.761,8.074-6.868c3.189-1.103,5.276-0.147,8.086,1.643c1.535,0.976,2.535,2.63,4.195,3.433    c1.336,0.644,3.117-2.055,4.14-2.98c2.848-2.579,5.699-3.941,9.461-4.636c4.517-0.83,7.848,0.196,11.993,1.906    c1.568,0.648,2.765,1.678,4.293,2.383c1.265,0.585,2.232,1.788,3.591,2.169c2.399,0.669,4.343-5.545,5.016-7.269    c1.178-3.019,3.997-5.991,6.845-7.681c3.621-2.149,7.444-1.468,11.515-1.219c2.571,0.155,4.943,1.877,7.211,2.532    c1.997,0.579,2.078-0.709,2.02-2.255c-0.171-4.587,3.65-9.3,8.339-9.742c4.181-0.395,7.888,0.589,11.6,2.552    c1.581,0.836,3.63,2.405,5.507,2.295c0.534-0.03,0.929-0.171,1.212-0.395C121.671,43.832,119.935,40.253,119.393,38.824z     M105.717,34.801c-5.092-1.665-11.095,0.681-14.093,4.919c-0.608,0.86-1.202,1.788-1.574,2.769    c-0.143,0.377-0.672,2.956-1.168,2.966c-1.232,0.03-2.461-0.08-3.673-0.306c-2.646-0.497-5.54-1.983-8.249-1.545    c-2.639,0.426-5.163,1.313-7.563,2.477c-2.22,1.076-5.307,3.345-6.46,5.516c-0.716,1.35-1.614,2.175-2.062,3.659    c-0.284,0.942-0.589,1.965-1.289,2.691c-1.544,1.604-5.225-1.6-6.465-2.599c-2.156-1.739-5.253-2.669-8.016-2.927    c-5.217,0.51-10.41,2.094-14.552,5.402c-0.969,0.775-1.87,1.631-2.694,2.559c-1.317,0.018-1.545-1.162-2.378-1.851    c-1.902-1.566-4.499-2.34-6.908-2.793c-2.735-0.088-5.39,0.481-7.824,1.737c-1.004,0.516-1.958,1.343-2.828,2.057    c-0.881,0.728-1.389,1.818-2.286,2.497c-0.23-0.385-0.322-0.834-0.335-1.311c-0.031-1.048,0.315-2.228,0.405-3.129    c0.189-1.894,0.235-3.794,0.476-5.688c0.464-3.657,1.232-7.304,2.513-10.77c0.945-2.562,1.897-6.006,3.909-7.946    c2.482,0.677,4.589,2.556,6.995,3.429c6.393,2.312,13.457,4.681,20.353,4.346c1.697-0.081,2.872-0.477,4.581-0.171    c1.21,0.218,2.313,0.063,1.641-1.353c-1.081-2.275-0.735-5.696-0.735-8.175c0-2.554,3.311-4.238,5.201-5.561    c1.143-0.801,2.735-1.409,4.154-1.097c0.985,0.216,1.39,1.205,2.252,1.617c1.271,2.379,3.133,4.499,4.528,6.86    c2.034,3.445,2.977,0.074,5.208-0.838c2.38-0.974,4.449-2.878,6.634-4.244c3.015-1.886,5.932-3.608,8.637-5.956    c1.419-1.231,2.784-2.522,4.145-3.814c1.124-1.068,1.401-1.896,2.15-3.18c0.763-1.309,1.434-2.583,1.777-4.085    c0.127-0.554,0.202-2.161,0.609-2.546c0.822-0.779,2.403,1.276,2.896,1.712c1.224,1.085,2.615,1.967,3.814,3.135    c1.34,1.307,2.56,2.73,3.767,4.159c1.115,1.321,2.711,2.685,3.594,4.155c3.246,5.408,7.551,10.325,9.95,16.253    C111.683,36.995,108.736,35.79,105.717,34.801z M113.91,101.131c-1.354-4.872-3.559-9.21-7.195-12.786    c-1.228-1.209-2.715-1.898-4.063-2.936c-0.826-0.632-1.583-1.529-2.659-1.714c-1.095-0.187-0.85,1.031-0.76,1.718    c0.174,1.329,0.422,2.507-0.2,3.784c-1.149,2.354-3.646,3.617-6.101,4.161c-1.288,0.285-2.613,0.396-3.93,0.377    c-1.715-0.027-2.684,0.23-2.343-1.747c0.431-2.503,2.305-4.534,2.497-7.092c0.316-4.242-2.343-1.229-4.104-0.29    c-1.285,0.687-2.951-0.51-4.147-1.103c-1.679-0.834-1.171-1.657-1.345-3.284c-0.102-0.946-0.771-2.561-1.949-1.596    c-0.916,0.752-0.864,2.102-1.568,3.009c-1.617,2.087-1.989,5.023-3.411,7.269c-2.114,0.124-5.084-1.396-6.527-2.889    c-2.099-2.169-3.883-4.625-4.825-7.522c-0.539-1.655,1.221-2.579,1.519-4.016c0.139-0.671-0.033-1.105-0.416-1.362    c-1.746-1.166-7.876,1.364-8.892,1.853c-3.895,1.867-7.429,4.57-10.344,7.75c-4.939,5.388-8.41,11.302-8.654,18.787    c1.339,0.679,3.504-1.525,4.818-1.91c2.026-0.593,4.234-1.219,6.352-0.968c2.298,0.271,3.684,0.524,5.313,2.248    c1.428,1.508,1.642,3.294,2.752,4.941c3.725-2.532,7.442-4.34,11.739-1.984c4.343,2.383,5.391,6.356,6.169,10.939    c2.393-0.438,3.588-2.609,5.638-3.649c2.385-1.319,4.673-2.03,7.406-2.014c1.499,0.008,3.164-0.049,4.591,0.489    c1.289,0.485,2.594,1.565,3.595,2.501c0.71,0.663,1.796,2.958,2.732,3.088c1.491,0.21,1.495-2.481,2.055-3.256    c0.945-1.313,2.787-0.711,4.104-0.455c3.077,0.602,5.695,1.841,7.916,4.061c0.956,0.956,1.667,1.456,2.234,2.695    c0.313,0.685,0.724,1.343,1.518,1.513c1.257-2.719,1.344-5.918,1.324-8.857C114.726,107.649,114.775,104.244,113.91,101.131z     M95.848,109.795c-3.792-3.879-9.582-6.634-14.91-4.446c-1.483,0.605-2.796,1.529-4.163,2.349    c-1.573,0.942-2.079,1.523-2.873-0.355c-1.175-2.783-1.121-4.856-3.897-6.527c-2.515-1.515-4.28-2.436-7.307-2.395    c-1.718,0.022-3.038,0.348-4.642,0.946c-1.21,0.451-2.113,1.833-2.673,0.086c-0.717-2.242-2.488-4.473-4.806-5.263    c-1.238-0.422-2.928-0.159-4.241-0.143c-1.962,0.022-3.898,0.509-5.875,0.493c1.1-1.708,1.979-3.561,3.14-5.231    c1.078-1.551,2.484-2.828,3.822-4.146c2.193-2.163,4.964-3.313,7.447-5.068c0.837-0.593,1.682-1.608,2.654-1.875    c0.581,0.968,0.516,2.35,0.926,3.417c0.33,0.858,0.596,1.839,1.077,2.628c0.961,1.582,2.26,2.925,3.735,4.036    c1.811,1.36,3.797,2.516,5.937,3.278c1.003,0.359,2.254,0.836,3.329,0.783c0.509-0.026,1.361,0.02,2.026-0.131    c0.295-0.067,0.554-0.173,0.73-0.342c0.697-0.665,0.848-1.882,1.058-2.799c0.137-0.605,0.239-2.552,0.827-2.927    c0.588-0.375,2.218,0.987,2.871,1.172c0.314,0.088,4.192,1.272,4.199,0.907c-0.039,2.342-0.987,4.835-0.396,7.159    c0.692,2.72,3.896,2.198,6.129,2.151c2.807-0.057,4.913,0.027,7.435-1.321c2.003-1.07,3.783-2.571,4.741-4.675    c2.004,1.372,4.178,5.001,4.729,7.267c0.717,2.948,1.179,5.948,1.24,8.984C105.227,105.659,97.092,105.486,95.848,109.795z" fill="#59667d"/>
	</g>
</g>
<g>
</g>
<g>
</g>
<g>
</g>
<g>
</g>
<g>
</g>
<g>
</g>
<g>
</g>
<g>
</g>
<g>
</g>
<g>
</g>
<g>
</g>
<g>
</g>
<g>
</g>
<g>
</g>
<g>
</g>
</svg>
